# File created by Blade
# Date/Time:  Wed Jan 21 17:34:04 2015
# Frame Rate: 120.000 fps
#------------------------------------------------------
:FULLY-SPECIFIED
:DEGREES
1322
root 19.679439 13.219516 -14.399655 -211.040338 -1.755721 -163.304415
Spine 66.447807 10.890211 -3.640320
Head 0.796383 -1.438811 18.111073
LeftShoulder 5.436372 -21.886109 -0.265022
LeftArm 8.290029 22.669315 -56.587335
LeftForeArm -21.502217 -0.000000 -3.915303
LeftHand 2.024442 -0.000000 1.524755
LeftHandThumb1 -26.253704 0.000000 33.147579
RightShoulder -0.338276 -12.231400 0.609763
RightArm 19.300288 -23.536253 69.433296
RightForeArm -8.432216 -0.000000 23.183992
RightHand 1.315347 -0.000000 -2.089978
RightHandThumb1 -24.326973 -0.000000 -32.862282
LeftUpLeg -86.247395 -7.214143 8.996590
LeftLeg 147.299437 -0.000000 -0.000000
LeftFoot -23.718023 24.609620 -4.812766
LeftToeBase 12.417179 -0.000000 -0.000000
RightUpLeg -64.363721 -18.409226 -8.983093
RightLeg 140.224055 -0.000000 -0.000000
RightFoot -6.365368 -11.749007 13.633821
RightToeBase -12.359942 -0.000000 0.000000
1323
root 19.723862 13.244346 -14.389960 -210.597782 -2.210012 -163.372029
Spine 66.197923 10.957036 -3.959705
Head 0.186960 -1.929600 18.647406
LeftShoulder 5.504626 -21.896611 -0.232325
LeftArm 8.467358 22.446052 -56.270192
LeftForeArm -21.454783 -0.000000 -3.898442
LeftHand 2.155166 0.000000 1.708093
LeftHandThumb1 -26.253704 0.000000 33.147579
RightShoulder -0.581996 -12.079913 0.305931
RightArm 18.547927 -22.188409 71.016694
RightForeArm -8.118303 -0.000000 23.751157
RightHand 1.635718 -0.000000 -2.138300
RightHandThumb1 -24.326973 -0.000000 -32.862282
LeftUpLeg -86.153441 -7.466824 9.455978
LeftLeg 147.636492 -0.000000 -0.000000
LeftFoot -23.998406 24.612778 -4.939298
LeftToeBase 12.401021 -0.000000 -0.000000
RightUpLeg -64.605216 -18.341479 -9.073954
RightLeg 140.255038 -0.000000 -0.000000
RightFoot -6.423906 -11.449350 13.903386
RightToeBase -12.740246 -0.000000 0.000000
1324
root 19.764443 13.270615 -14.381175 -210.226611 -2.682528 -163.471273
Spine 66.063220 11.023609 -4.246194
Head -0.438649 -2.437437 19.145628
LeftShoulder 5.649570 -22.097101 -0.226020
LeftArm 8.431094 22.199666 -56.053024
LeftForeArm -21.295102 0.000000 -3.801876
LeftHand 2.265550 0.000000 1.947065
LeftHandThumb1 -26.253704 0.000000 33.147579
RightShoulder -0.886614 -12.046204 0.027783
RightArm 17.965106 -20.845883 72.540858
RightForeArm -8.115374 0.000000 24.439709
RightHand 1.670748 -0.000000 -2.351361
RightHandThumb1 -24.326973 -0.000000 -32.862282
LeftUpLeg -85.937829 -7.731822 9.778580
LeftLeg 147.911893 -0.000000 -0.000000
LeftFoot -24.332363 24.702656 -4.947326
LeftToeBase 11.784475 -0.000000 -0.000000
RightUpLeg -64.764163 -18.278122 -9.215298
RightLeg 140.288949 -0.000000 -0.000000
RightFoot -6.571982 -11.191379 14.214511
RightToeBase -12.831512 -0.000000 0.000000
1325
root 19.803745 13.286684 -14.377131 -209.808594 -3.175877 -163.558257
Spine 65.851194 10.998773 -4.562150
Head -1.019336 -2.892876 19.601683
LeftShoulder 5.693536 -22.215337 -0.242250
LeftArm 8.463213 22.032135 -55.790507
LeftForeArm -21.135819 -0.000000 -3.685287
LeftHand 2.367727 -0.000000 2.114956
LeftHandThumb1 -26.253704 0.000000 33.147579
RightShoulder -1.249005 -12.162622 -0.168790
RightArm 17.628089 -19.566044 73.868835
RightForeArm -8.184332 -0.000000 25.023820
RightHand 1.834708 -0.000000 -2.674837
RightHandThumb1 -24.326973 -0.000000 -32.862282
LeftUpLeg -85.796993 -7.975607 10.019759
LeftLeg 148.176859 -0.000000 -0.000000
LeftFoot -24.881675 24.781288 -5.089846
LeftToeBase 11.308797 -0.000000 -0.000000
RightUpLeg -64.967685 -18.273086 -9.341510
RightLeg 140.361724 -0.000000 -0.000000
RightFoot -6.766546 -10.969122 14.522803
RightToeBase -13.166883 -0.000000 0.000000
1326
root 19.848669 13.300144 -14.370784 -209.406771 -3.643860 -163.585625
Spine 65.694158 10.987710 -4.661869
Head -1.633996 -3.441850 20.007830
LeftShoulder 5.896029 -22.254820 -0.298372
LeftArm 8.556027 21.887403 -55.532539
LeftForeArm -21.040121 0.000000 -3.552040
LeftHand 2.459305 -0.000000 2.325456
LeftHandThumb1 -26.253704 0.000000 33.147579
RightShoulder -1.731040 -12.194839 -0.299815
RightArm 17.244398 -18.334495 75.125043
RightForeArm -8.073735 -0.000000 25.642691
RightHand 1.885277 -0.000000 -2.809377
RightHandThumb1 -24.326973 -0.000000 -32.862282
LeftUpLeg -85.649260 -8.175623 10.268698
LeftLeg 148.373258 -0.000000 -0.000000
LeftFoot -25.410720 24.874225 -5.274720
LeftToeBase 10.872932 -0.000000 -0.000000
RightUpLeg -65.146170 -18.264257 -9.334638
RightLeg 140.434269 -0.000000 -0.000000
RightFoot -7.174773 -10.807811 14.931275
RightToeBase -13.062270 -0.000000 0.000000
1327
root 19.890884 13.305254 -14.371667 -209.010268 -4.174950 -163.702844
Spine 65.505797 10.955223 -4.933849
Head -2.151590 -3.911467 20.438006
LeftShoulder 6.034071 -22.320729 -0.270078
LeftArm 8.577501 21.770513 -55.330518
LeftForeArm -21.024092 -0.000000 -3.431936
LeftHand 2.646504 -0.000000 2.533070
LeftHandThumb1 -26.253704 0.000000 33.147579
RightShoulder -2.157975 -12.348713 -0.315211
RightArm 17.032887 -17.140101 76.209296
RightForeArm -8.052661 -0.000000 26.244337
RightHand 1.994670 -0.000000 -2.962526
RightHandThumb1 -24.326973 -0.000000 -32.862282
LeftUpLeg -85.504302 -8.366645 10.309256
LeftLeg 148.523910 -0.000000 -0.000000
LeftFoot -25.722186 25.110756 -5.372198
LeftToeBase 10.543015 -0.000000 -0.000000
RightUpLeg -65.343201 -18.277374 -9.431550
RightLeg 140.569495 -0.000000 -0.000000
RightFoot -7.586761 -10.763741 15.085857
RightToeBase -12.765902 -0.000000 0.000000
1328
root 19.936734 13.310297 -14.372139 -208.614253 -4.669848 -163.816259
Spine 65.319778 10.904324 -5.256778
Head -2.636228 -4.290083 20.849612
LeftShoulder 6.041594 -22.367205 -0.182301
LeftArm 8.685674 21.788939 -55.106390
LeftForeArm -21.121123 -0.000000 -3.344734
LeftHand 2.732446 -0.000000 2.668318
LeftHandThumb1 -26.253704 0.000000 33.147579
RightShoulder -2.472437 -12.354897 -0.213364
RightArm 16.711018 -16.069639 77.101648
RightForeArm -8.190837 -0.000000 26.953443
RightHand 2.031149 -0.000000 -3.151346
RightHandThumb1 -24.326973 -0.000000 -32.862282
LeftUpLeg -85.324111 -8.472951 10.355664
LeftLeg 148.590144 -0.000000 -0.000000
LeftFoot -25.943645 25.330979 -5.377956
LeftToeBase 10.264495 -0.000000 -0.000000
RightUpLeg -65.532773 -18.274484 -9.447146
RightLeg 140.704935 -0.000000 -0.000000
RightFoot -8.154817 -10.802623 15.141849
RightToeBase -12.126233 -0.000000 0.000000
